<?xml version="1.0" encoding="UTF-8" standalone="no"?>
<!DOCTYPE svg PUBLIC "-//W3C//DTD SVG 1.1//EN" "http://www.w3.org/Graphics/SVG/1.1/DTD/svg11.dtd">
<svg width="100%" height="100%" viewBox="0 0 1280 428" version="1.1" xmlns="http://www.w3.org/2000/svg" xmlns:xlink="http://www.w3.org/1999/xlink" xml:space="preserve" xmlns:serif="http://www.serif.com/" style="fill-rule:evenodd;clip-rule:evenodd;stroke-linecap:round;stroke-linejoin:round;stroke-miterlimit:1.5;">
    <g transform="matrix(1,0,0,1,-1553.84,0)">
        <g id="Mesa-de-trabajo1" serif:id="Mesa de trabajo1" transform="matrix(1,0,0,0.333998,1553.84,0)">
            <rect x="0" y="0" width="1280" height="1280" style="fill:none;"/>
            <g transform="matrix(0.663575,0,0,1.98677,-42.7059,-414.292)">
                <path d="M565.347,547.764C565.347,598.67 524.017,640 473.111,640L240.076,640C189.169,640 147.84,598.67 147.84,547.764C147.84,496.857 189.169,455.527 240.076,455.527L473.111,455.527C524.017,455.527 565.347,496.857 565.347,547.764Z" style="fill:none;stroke:white;stroke-width:21.98px;"/>
            </g>
            <g transform="matrix(0.663575,0,0,1.98677,-42.7059,-414.292)">
                <path d="M565.347,547.764C565.347,598.67 524.017,640 473.111,640L240.076,640C189.169,640 147.84,598.67 147.84,547.764C147.84,496.857 189.169,455.527 240.076,455.527L473.111,455.527C524.017,455.527 565.347,496.857 565.347,547.764Z" style="fill:none;stroke:white;stroke-width:21.98px;"/>
            </g>
            <g transform="matrix(0.663575,0,0,1.98677,262.285,-2353.07)">
                <path d="M136.38,1523.61C136.38,1472.7 177.71,1431.37 228.616,1431.37L461.651,1431.37C512.557,1431.37 553.887,1472.7 553.887,1523.61M136.38,1431.37L136.38,1615.85M553.887,1523.61L553.887,1615.85" style="fill:none;stroke:white;stroke-width:21.98px;"/>
            </g>
            <g transform="matrix(0.663575,0,0,1.98677,262.285,-2353.07)">
                <path d="M1002.05,1523.61C1002.05,1574.52 960.715,1615.85 909.808,1615.85L676.774,1615.85C625.867,1615.85 584.537,1574.52 584.537,1523.61C584.537,1472.7 625.867,1431.37 676.774,1431.37L909.808,1431.37C960.715,1431.37 1002.05,1472.7 1002.05,1523.61ZM1002.05,1523.61L1002.05,1615.85M1002.05,1523.61L1002.05,1360.23" style="fill:none;stroke:white;stroke-width:21.98px;"/>
            </g>
            <g transform="matrix(0.663575,0,0,1.98677,262.285,-2353.07)">
                <path d="M1450.2,1523.61C1450.2,1574.52 1408.87,1615.85 1357.97,1615.85L1124.93,1615.85C1074.03,1615.85 1032.69,1574.52 1032.69,1523.61C1032.69,1472.7 1074.03,1431.37 1124.93,1431.37L1357.97,1431.37C1408.87,1431.37 1450.2,1472.7 1450.2,1523.61ZM1450.2,1523.61L1450.2,1615.85" style="fill:none;stroke:white;stroke-width:21.98px;"/>
            </g>
            <g transform="matrix(1.21651,0,0,3.64228,-1755.92,-2164.16)">
                <g transform="matrix(50,0,0,50,1850.43,913.517)">
                    <path d="M0.076,-0.001L0.076,-0.668L0.285,-0.668C0.34,-0.668 0.388,-0.663 0.43,-0.652C0.471,-0.641 0.504,-0.622 0.528,-0.593C0.551,-0.564 0.563,-0.521 0.563,-0.466C0.563,-0.411 0.551,-0.37 0.528,-0.341C0.504,-0.312 0.471,-0.292 0.43,-0.282C0.388,-0.271 0.34,-0.266 0.285,-0.266L0.17,-0.266L0.17,-0.001L0.076,-0.001ZM0.17,-0.347L0.293,-0.347C0.326,-0.347 0.355,-0.349 0.381,-0.354C0.407,-0.359 0.428,-0.37 0.444,-0.387C0.459,-0.404 0.467,-0.43 0.467,-0.466C0.467,-0.503 0.459,-0.53 0.444,-0.547C0.428,-0.564 0.407,-0.576 0.381,-0.581C0.355,-0.586 0.326,-0.589 0.293,-0.589L0.17,-0.589L0.17,-0.347Z" style="fill:white;fill-rule:nonzero;"/>
                </g>
                <g transform="matrix(50,0,0,50,1876.38,913.517)">
                    <path d="M0.01,-0L0.261,-0.669L0.366,-0.669L0.616,-0L0.516,-0L0.465,-0.146L0.161,-0.146L0.11,-0L0.01,-0ZM0.19,-0.227L0.436,-0.227L0.313,-0.574L0.19,-0.227Z" style="fill:white;fill-rule:nonzero;"/>
                </g>
                <g transform="matrix(50,0,0,50,1907.68,913.517)">
                    <path d="M0.076,-0L0.076,-0.668L0.215,-0.668L0.519,-0.1L0.519,-0.668L0.613,-0.668L0.613,-0L0.475,-0L0.17,-0.571L0.17,-0L0.076,-0Z" style="fill:white;fill-rule:nonzero;"/>
                </g>
                <g transform="matrix(50,0,0,50,1942.13,913.517)">
                    <path d="M0.232,-0L0.232,-0.587L0.01,-0.587L0.01,-0.668L0.548,-0.668L0.548,-0.587L0.326,-0.587L0.326,-0L0.232,-0Z" style="fill:white;fill-rule:nonzero;"/>
                </g>
                <g transform="matrix(50,0,0,50,1966.73,913.517)">
                    <path d="M0.01,-0L0.261,-0.669L0.366,-0.669L0.616,-0L0.516,-0L0.465,-0.146L0.161,-0.146L0.11,-0L0.01,-0ZM0.19,-0.227L0.436,-0.227L0.313,-0.574L0.19,-0.227Z" style="fill:white;fill-rule:nonzero;"/>
                </g>
                <g transform="matrix(50,0,0,50,1998.03,913.517)">
                    <path d="M0.076,-0L0.076,-0.668L0.17,-0.668L0.17,-0.081L0.529,-0.081L0.529,-0L0.076,-0Z" style="fill:white;fill-rule:nonzero;"/>
                </g>
                <g transform="matrix(50,0,0,50,2024.98,913.517)">
                    <path d="M0.076,-0L0.076,-0.668L0.17,-0.668L0.17,-0.081L0.529,-0.081L0.529,-0L0.076,-0Z" style="fill:white;fill-rule:nonzero;"/>
                </g>
                <g transform="matrix(50,0,0,50,2053.33,913.517)">
                    <path d="M0.01,-0L0.261,-0.669L0.366,-0.669L0.616,-0L0.516,-0L0.465,-0.146L0.161,-0.146L0.11,-0L0.01,-0ZM0.19,-0.227L0.436,-0.227L0.313,-0.574L0.19,-0.227Z" style="fill:white;fill-rule:nonzero;"/>
                </g>
            </g>
            <g transform="matrix(0.706932,0,0,2.99403,-66.5115,-1165.2)">
                <g transform="matrix(50,0,0,50,1667.98,523.763)">
                    <path d="M-0.001,-0L0.273,-0.716L0.375,-0.716L0.668,-0L0.561,-0L0.477,-0.217L0.178,-0.217L0.099,-0L-0.001,-0ZM0.205,-0.294L0.448,-0.294L0.373,-0.492C0.35,-0.552 0.333,-0.602 0.322,-0.641C0.313,-0.595 0.3,-0.549 0.284,-0.504L0.205,-0.294Z" style="fill:white;fill-rule:nonzero;"/>
                </g>
                <g transform="matrix(50,0,0,50,1701.33,523.763)">
                    <path d="M0.073,-0L0.073,-0.716L0.168,-0.716L0.168,-0.084L0.521,-0.084L0.521,-0L0.073,-0Z" style="fill:white;fill-rule:nonzero;"/>
                </g>
                <g transform="matrix(50,0,0,50,1729.14,523.763)">
                    <path d="M0.077,-0L0.077,-0.716L0.347,-0.716C0.395,-0.716 0.431,-0.714 0.456,-0.709C0.491,-0.703 0.521,-0.692 0.544,-0.676C0.568,-0.659 0.587,-0.636 0.602,-0.606C0.616,-0.577 0.624,-0.544 0.624,-0.509C0.624,-0.448 0.604,-0.396 0.565,-0.354C0.527,-0.312 0.457,-0.291 0.355,-0.291L0.172,-0.291L0.172,-0L0.077,-0ZM0.172,-0.375L0.357,-0.375C0.418,-0.375 0.462,-0.387 0.487,-0.41C0.513,-0.432 0.526,-0.465 0.526,-0.506C0.526,-0.536 0.518,-0.561 0.503,-0.583C0.488,-0.604 0.468,-0.618 0.443,-0.625C0.427,-0.629 0.398,-0.631 0.355,-0.631L0.172,-0.631L0.172,-0.375Z" style="fill:white;fill-rule:nonzero;"/>
                </g>
                <g transform="matrix(50,0,0,50,1762.49,523.763)">
                    <path d="M0.08,-0L0.08,-0.716L0.175,-0.716L0.175,-0.422L0.547,-0.422L0.547,-0.716L0.642,-0.716L0.642,-0L0.547,-0L0.547,-0.337L0.175,-0.337L0.175,-0L0.08,-0Z" style="fill:white;fill-rule:nonzero;"/>
                </g>
                <g transform="matrix(50,0,0,50,1798.6,523.763)">
                    <path d="M-0.001,-0L0.273,-0.716L0.375,-0.716L0.668,-0L0.561,-0L0.477,-0.217L0.178,-0.217L0.099,-0L-0.001,-0ZM0.205,-0.294L0.448,-0.294L0.373,-0.492C0.35,-0.552 0.333,-0.602 0.322,-0.641C0.313,-0.595 0.3,-0.549 0.284,-0.504L0.205,-0.294Z" style="fill:white;fill-rule:nonzero;"/>
                </g>
            </g>
        </g>
    </g>
</svg>
